<svg xmlns="http://www.w3.org/2000/svg" fill-rule="evenodd" stroke-linejoin="round" stroke-miterlimit="2" clip-rule="evenodd" viewBox="0 0 35 31"><path fill="#c7cbd1" fill-rule="nonzero" d="M32.42 10.22h-9.44L23 0h-5.43l-3.12 11.94-2.54 2.07H8.8V11.4H0v18.62h8.8V27.5h3.1L15 30h17.23l2.75-17.64-2.55-2.15zM6.78 28.02H2.03V13.39h4.75v14.65zm8.94 0l-3.08-2.52H8.81V16h3.83l3.62-2.94 2.89-11.07h1.82l-.02 10.21h10.72l1.13.96-.24 1.51h-2.71v1.99h2.4l-.38 2.46h-2.73v1.99h2.42l-.39 2.46h-2.74v2h2.43l-.38 2.46H15.72z"/></svg>